<?xml version="1.0" encoding="UTF-8" standalone="no"?>
<!DOCTYPE svg PUBLIC "-//W3C//DTD SVG 1.1//EN" "http://www.w3.org/Graphics/SVG/1.1/DTD/svg11.dtd">
<svg width="100%" height="100%" viewBox="0 0 32 32" version="1.1" xmlns="http://www.w3.org/2000/svg" xmlns:xlink="http://www.w3.org/1999/xlink" xml:space="preserve" xmlns:serif="http://www.serif.com/" style="fill-rule:evenodd;clip-rule:evenodd;stroke-linejoin:round;stroke-miterlimit:2;">
    <g transform="matrix(1.50571,0,0,1.06716,-8.41433,1.22542)">
        <path d="M26.841,4.897C26.841,3.711 26.159,2.749 25.319,2.749L7.111,2.749C6.27,2.749 5.588,3.711 5.588,4.897L5.588,22.793C5.588,23.978 6.27,24.94 7.111,24.94L25.319,24.94C26.159,24.94 26.841,23.978 26.841,22.793L26.841,4.897Z" style="fill:rgb(255,251,251);"/>
    </g>
    <g transform="matrix(0.251087,0,0,0.251087,-6.46542,1.75197)">
        <path d="M58.054,61.273L49.238,70.328L49.238,84.545L38.912,84.545L38.912,28.947L49.238,28.947L49.238,57.46L76.719,28.947L88.315,28.947L64.963,53.807L89.745,84.545L77.672,84.545L58.054,61.273Z" style="fill-rule:nonzero;"/>
    </g>
    <g transform="matrix(0.251087,0,0,0.251087,-90.8803,1.75197)">
        <path d="M454.152,85.339C448.539,85.339 443.469,84.108 438.942,81.646C434.415,79.184 430.867,75.781 428.299,71.439C425.731,67.098 424.447,62.2 424.447,56.746C424.447,51.292 425.744,46.394 428.338,42.052C430.933,37.71 434.494,34.308 439.021,31.846C443.549,29.383 448.619,28.152 454.231,28.152C458.785,28.152 462.942,28.947 466.701,30.535C470.461,32.124 473.638,34.427 476.232,37.445L469.561,43.72C465.536,39.378 460.585,37.207 454.708,37.207C450.895,37.207 447.48,38.041 444.462,39.709C441.444,41.377 439.087,43.693 437.393,46.659C435.699,49.624 434.851,52.986 434.851,56.746C434.851,60.505 435.699,63.868 437.393,66.833C439.087,69.798 441.444,72.115 444.462,73.783C447.48,75.45 450.895,76.284 454.708,76.284C460.585,76.284 465.536,74.087 469.561,69.692L476.232,76.046C473.638,79.064 470.448,81.368 466.662,82.956C462.876,84.545 458.706,85.339 454.152,85.339Z" style="fill-rule:nonzero;"/>
    </g>
</svg>
