<?xml version="1.0" encoding="UTF-8" standalone="no"?>
<!DOCTYPE svg PUBLIC "-//W3C//DTD SVG 1.1//EN" "http://www.w3.org/Graphics/SVG/1.1/DTD/svg11.dtd">
<svg width="100%" height="100%" viewBox="0 0 506 186" version="1.1" xmlns="http://www.w3.org/2000/svg" xmlns:xlink="http://www.w3.org/1999/xlink" xml:space="preserve" xmlns:serif="http://www.serif.com/" style="fill-rule:evenodd;clip-rule:evenodd;stroke-linejoin:round;stroke-miterlimit:2;">
    <g transform="matrix(1,0,0,1,-35,-27)">
        <g id="Invert">
            <path d="M58.054,61.273L49.238,70.328L49.238,84.545L38.912,84.545L38.912,28.947L49.238,28.947L49.238,57.46L76.719,28.947L88.315,28.947L64.963,53.807L89.745,84.545L77.672,84.545L58.054,61.273Z" style="fill:white;fill-rule:nonzero;"/>
            <path d="M120.801,85.339C115.135,85.339 110.025,84.108 105.472,81.646C100.918,79.184 97.344,75.768 94.749,71.4C92.154,67.031 90.857,62.147 90.857,56.746C90.857,51.345 92.154,46.46 94.749,42.092C97.344,37.723 100.918,34.308 105.472,31.846C110.025,29.383 115.135,28.152 120.801,28.152C126.466,28.152 131.576,29.383 136.13,31.846C140.684,34.308 144.258,37.71 146.853,42.052C149.447,46.394 150.744,51.292 150.744,56.746C150.744,62.2 149.447,67.098 146.853,71.439C144.258,75.781 140.684,79.184 136.13,81.646C131.576,84.108 126.466,85.339 120.801,85.339ZM120.801,76.284C124.507,76.284 127.843,75.45 130.808,73.783C133.774,72.115 136.104,69.785 137.798,66.793C139.492,63.801 140.34,60.452 140.34,56.746C140.34,53.039 139.492,49.69 137.798,46.698C136.104,43.707 133.774,41.377 130.808,39.709C127.843,38.041 124.507,37.207 120.801,37.207C117.094,37.207 113.758,38.041 110.793,39.709C107.828,41.377 105.498,43.707 103.804,46.698C102.109,49.69 101.262,53.039 101.262,56.746C101.262,60.452 102.109,63.801 103.804,66.793C105.498,69.785 107.828,72.115 110.793,73.783C113.758,75.45 117.094,76.284 120.801,76.284Z" style="fill:white;fill-rule:nonzero;"/>
            <path d="M178.941,85.339C174.652,85.339 170.508,84.73 166.51,83.512C162.513,82.294 159.349,80.679 157.019,78.667L160.593,70.645C162.87,72.446 165.663,73.915 168.973,75.053C172.282,76.192 175.605,76.761 178.941,76.761C183.071,76.761 186.155,76.099 188.194,74.775C190.232,73.452 191.252,71.704 191.252,69.533C191.252,67.945 190.682,66.634 189.544,65.602C188.406,64.569 186.963,63.762 185.215,63.179C183.468,62.597 181.085,61.935 178.067,61.194C173.831,60.187 170.402,59.181 167.781,58.175C165.16,57.169 162.91,55.594 161.03,53.449C159.15,51.305 158.21,48.406 158.21,44.752C158.21,41.681 159.044,38.888 160.712,36.373C162.38,33.858 164.895,31.859 168.258,30.376C171.62,28.894 175.737,28.152 180.609,28.152C183.997,28.152 187.333,28.576 190.616,29.423C193.899,30.27 196.732,31.488 199.115,33.077L195.858,41.099C193.423,39.669 190.881,38.584 188.233,37.842C185.586,37.101 183.018,36.73 180.529,36.73C176.452,36.73 173.421,37.419 171.435,38.795C169.449,40.172 168.456,41.999 168.456,44.276C168.456,45.864 169.026,47.162 170.164,48.168C171.303,49.174 172.745,49.968 174.493,50.55C176.24,51.133 178.623,51.795 181.641,52.536C185.771,53.489 189.16,54.482 191.808,55.515C194.455,56.547 196.719,58.122 198.599,60.24C200.478,62.358 201.418,65.218 201.418,68.818C201.418,71.89 200.584,74.669 198.916,77.158C197.248,79.647 194.72,81.632 191.331,83.115C187.942,84.598 183.812,85.339 178.941,85.339Z" style="fill:white;fill-rule:nonzero;"/>
            <path d="M261.066,28.947L261.066,84.545L250.742,84.545L250.742,60.717L221.99,60.717L221.99,84.545L211.664,84.545L211.664,28.947L221.99,28.947L221.99,51.901L250.742,51.901L250.742,28.947L261.066,28.947Z" style="fill:white;fill-rule:nonzero;"/>
            <path d="M299.986,64.927L299.986,84.545L289.661,84.545L289.661,65.085L267.818,28.947L278.859,28.947L295.141,56.031L311.582,28.947L321.749,28.947L299.986,64.927Z" style="fill:white;fill-rule:nonzero;"/>
            <path d="M392.12,85.418L385.131,78.667C379.942,83.115 373.72,85.339 366.466,85.339C362.6,85.339 359.132,84.704 356.061,83.433C352.99,82.162 350.58,80.401 348.833,78.151C347.086,75.901 346.212,73.346 346.212,70.486C346.212,67.045 347.218,64.013 349.23,61.392C351.242,58.771 354.525,56.19 359.079,53.648C356.855,51.424 355.267,49.346 354.313,47.413C353.36,45.48 352.884,43.482 352.884,41.416C352.884,37.498 354.353,34.334 357.292,31.925C360.231,29.516 364.136,28.311 369.007,28.311C373.508,28.311 377.109,29.41 379.809,31.607C382.51,33.805 383.86,36.783 383.86,40.543C383.86,43.402 382.973,45.944 381.199,48.168C379.425,50.392 376.526,52.642 372.502,54.919L384.495,66.356C385.819,63.762 386.852,60.638 387.593,56.984L395.615,59.605C394.556,64.529 392.888,68.765 390.611,72.313L397.601,78.985L392.12,85.418ZM369.007,35.38C366.836,35.38 365.115,35.923 363.845,37.008C362.574,38.094 361.938,39.51 361.938,41.258C361.938,42.528 362.282,43.733 362.971,44.871C363.659,46.01 364.983,47.559 366.942,49.518C370.119,47.771 372.33,46.248 373.574,44.951C374.819,43.654 375.441,42.237 375.441,40.702C375.441,39.06 374.872,37.763 373.733,36.81C372.595,35.857 371.019,35.38 369.007,35.38ZM367.18,77.238C371.787,77.238 375.811,75.834 379.253,73.028L364.559,58.97C361.382,60.717 359.145,62.398 357.848,64.013C356.551,65.628 355.902,67.442 355.902,69.454C355.902,71.784 356.934,73.663 359,75.093C361.065,76.523 363.792,77.238 367.18,77.238Z" style="fill:white;fill-rule:nonzero;"/>
            <path d="M454.152,85.339C448.539,85.339 443.469,84.108 438.942,81.646C434.415,79.184 430.867,75.781 428.299,71.439C425.731,67.098 424.447,62.2 424.447,56.746C424.447,51.292 425.744,46.394 428.338,42.052C430.933,37.71 434.494,34.308 439.021,31.846C443.549,29.383 448.619,28.152 454.231,28.152C458.785,28.152 462.942,28.947 466.701,30.535C470.461,32.124 473.638,34.427 476.232,37.445L469.561,43.72C465.536,39.378 460.585,37.207 454.708,37.207C450.895,37.207 447.48,38.041 444.462,39.709C441.444,41.377 439.087,43.693 437.393,46.659C435.699,49.624 434.851,52.986 434.851,56.746C434.851,60.505 435.699,63.868 437.393,66.833C439.087,69.798 441.444,72.115 444.462,73.783C447.48,75.45 450.895,76.284 454.708,76.284C460.585,76.284 465.536,74.087 469.561,69.692L476.232,76.046C473.638,79.064 470.448,81.368 466.662,82.956C462.876,84.545 458.706,85.339 454.152,85.339Z" style="fill:white;fill-rule:nonzero;"/>
            <path d="M510.942,85.339C505.276,85.339 500.166,84.108 495.612,81.646C491.059,79.184 487.484,75.768 484.89,71.4C482.295,67.031 480.998,62.147 480.998,56.746C480.998,51.345 482.295,46.46 484.89,42.092C487.484,37.723 491.059,34.308 495.612,31.846C500.166,29.383 505.276,28.152 510.942,28.152C516.607,28.152 521.716,29.383 526.271,31.846C530.825,34.308 534.399,37.71 536.993,42.052C539.588,46.394 540.885,51.292 540.885,56.746C540.885,62.2 539.588,67.098 536.993,71.439C534.399,75.781 530.825,79.184 526.271,81.646C521.716,84.108 516.607,85.339 510.942,85.339ZM510.942,76.284C514.648,76.284 517.984,75.45 520.948,73.783C523.914,72.115 526.244,69.785 527.939,66.793C529.633,63.801 530.48,60.452 530.48,56.746C530.48,53.039 529.633,49.69 527.939,46.698C526.244,43.707 523.914,41.377 520.948,39.709C517.984,38.041 514.648,37.207 510.942,37.207C507.235,37.207 503.899,38.041 500.934,39.709C497.969,41.377 495.639,43.707 493.944,46.698C492.25,49.69 491.403,53.039 491.403,56.746C491.403,60.452 492.25,63.801 493.944,66.793C495.639,69.785 497.969,72.115 500.934,73.783C503.899,75.45 507.235,76.284 510.942,76.284Z" style="fill:white;fill-rule:nonzero;"/>
            <path d="M60.85,148.467C56.444,148.467 52.473,147.493 48.936,145.544C45.399,143.595 42.624,140.895 40.612,137.443C38.6,133.99 37.594,130.125 37.594,125.846C37.594,121.568 38.6,117.703 40.612,114.25C42.624,110.799 45.41,108.097 48.968,106.149C52.526,104.2 56.508,103.226 60.914,103.226C64.218,103.226 67.268,103.776 70.063,104.878C72.859,105.979 75.231,107.589 77.18,109.707L74.194,112.693C70.72,109.177 66.336,107.419 61.041,107.419C57.525,107.419 54.326,108.224 51.446,109.834C48.565,111.444 46.31,113.646 44.679,116.442C43.048,119.238 42.232,122.373 42.232,125.846C42.232,129.32 43.048,132.455 44.679,135.25C46.31,138.046 48.565,140.249 51.446,141.859C54.326,143.468 57.525,144.273 61.041,144.273C66.378,144.273 70.762,142.494 74.194,138.936L77.18,141.922C75.231,144.04 72.849,145.66 70.032,146.783C67.215,147.906 64.154,148.467 60.85,148.467Z" style="fill:rgb(128,128,128);fill-rule:nonzero;"/>
            <path d="M136.781,103.607L136.781,148.086L132.143,148.086L132.143,127.562L104.312,127.562L104.312,148.086L99.61,148.086L99.61,103.607L104.312,103.607L104.312,123.432L132.143,123.432L132.143,103.607L136.781,103.607Z" style="fill:rgb(128,128,128);fill-rule:nonzero;"/>
            <path d="M191.554,136.203L166.773,136.203L161.435,148.086L156.542,148.086L176.876,103.607L181.514,103.607L201.847,148.086L196.891,148.086L191.554,136.203ZM189.838,132.391L179.163,108.5L168.488,132.391L189.838,132.391Z" style="fill:rgb(128,128,128);fill-rule:nonzero;"/>
            <path d="M251.981,148.086L241.814,133.789C240.671,133.916 239.484,133.98 238.256,133.98L226.31,133.98L226.31,148.086L221.608,148.086L221.608,103.607L238.256,103.607C243.932,103.607 248.38,104.963 251.6,107.674C254.819,110.385 256.428,114.112 256.428,118.857C256.428,122.33 255.55,125.264 253.792,127.657C252.034,130.051 249.524,131.777 246.262,132.836L257.127,148.086L251.981,148.086ZM238.129,129.976C242.534,129.976 245.902,129.002 248.232,127.054C250.562,125.105 251.727,122.373 251.727,118.857C251.727,115.256 250.562,112.492 248.232,110.565C245.902,108.637 242.534,107.674 238.129,107.674L226.31,107.674L226.31,129.976L238.129,129.976Z" style="fill:rgb(128,128,128);fill-rule:nonzero;"/>
            <path d="M287.945,107.674L272.314,107.674L272.314,103.607L308.278,103.607L308.278,107.674L292.647,107.674L292.647,148.086L287.945,148.086L287.945,107.674Z" style="fill:rgb(128,128,128);fill-rule:nonzero;"/>
            <path d="M359.619,144.019L359.619,148.086L328.166,148.086L328.166,103.607L358.666,103.607L358.666,107.674L332.868,107.674L332.868,123.495L355.87,123.495L355.87,127.498L332.868,127.498L332.868,144.019L359.619,144.019Z" style="fill:rgb(128,128,128);fill-rule:nonzero;"/>
            <path d="M413.438,148.086L403.272,133.789C402.128,133.916 400.942,133.98 399.713,133.98L387.768,133.98L387.768,148.086L383.066,148.086L383.066,103.607L399.713,103.607C405.39,103.607 409.838,104.963 413.057,107.674C416.276,110.385 417.886,114.112 417.886,118.857C417.886,122.33 417.007,125.264 415.249,127.657C413.491,130.051 410.981,131.777 407.719,132.836L418.585,148.086L413.438,148.086ZM399.586,129.976C403.992,129.976 407.359,129.002 409.689,127.054C412.019,125.105 413.184,122.373 413.184,118.857C413.184,115.256 412.019,112.492 409.689,110.565C407.359,108.637 403.992,107.674 399.586,107.674L387.768,107.674L387.768,129.976L399.586,129.976Z" style="fill:rgb(128,128,128);fill-rule:nonzero;"/>
            <path d="M472.849,144.019L472.849,148.086L441.396,148.086L441.396,103.607L471.896,103.607L471.896,107.674L446.098,107.674L446.098,123.495L469.1,123.495L469.1,127.498L446.098,127.498L446.098,144.019L472.849,144.019Z" style="fill:rgb(128,128,128);fill-rule:nonzero;"/>
            <path d="M496.295,103.607L514.405,103.607C519.107,103.607 523.258,104.55 526.859,106.435C530.459,108.32 533.255,110.946 535.246,114.314C537.237,117.681 538.232,121.526 538.232,125.846C538.232,130.167 537.237,134.011 535.246,137.379C533.255,140.747 530.459,143.373 526.859,145.258C523.258,147.143 519.107,148.086 514.405,148.086L496.295,148.086L496.295,103.607ZM514.15,144.019C518.047,144.019 521.458,143.246 524.38,141.7C527.303,140.154 529.57,138.014 531.179,135.282C532.789,132.55 533.594,129.405 533.594,125.846C533.594,122.288 532.789,119.143 531.179,116.411C529.57,113.678 527.303,111.539 524.38,109.993C521.458,108.447 518.047,107.674 514.15,107.674L500.997,107.674L500.997,144.019L514.15,144.019Z" style="fill:rgb(128,128,128);fill-rule:nonzero;"/>
            <path d="M70.286,199.744L45.505,199.744L40.167,211.626L35.275,211.626L55.608,167.148L60.246,167.148L80.579,211.626L75.623,211.626L70.286,199.744ZM68.57,195.932L57.895,172.041L47.22,195.932L68.57,195.932Z" style="fill:rgb(128,128,128);fill-rule:nonzero;"/>
            <path d="M107.584,212.008C103.179,212.008 99.207,211.033 95.67,209.085C92.133,207.136 89.359,204.436 87.347,200.983C85.334,197.531 84.328,193.666 84.328,189.387C84.328,185.109 85.334,181.243 87.347,177.791C89.359,174.339 92.144,171.638 95.702,169.69C99.26,167.741 103.242,166.767 107.648,166.767C110.952,166.767 114.002,167.317 116.798,168.419C119.593,169.52 121.966,171.13 123.914,173.248L120.928,176.234C117.454,172.718 113.07,170.96 107.775,170.96C104.259,170.96 101.061,171.765 98.18,173.375C95.3,174.985 93.044,177.187 91.413,179.983C89.782,182.779 88.967,185.914 88.967,189.387C88.967,192.861 89.782,195.995 91.413,198.791C93.044,201.587 95.3,203.79 98.18,205.399C101.061,207.009 104.259,207.814 107.775,207.814C113.112,207.814 117.497,206.035 120.928,202.477L123.914,205.463C121.966,207.582 119.583,209.201 116.766,210.324C113.949,211.446 110.888,212.008 107.584,212.008Z" style="fill:rgb(128,128,128);fill-rule:nonzero;"/>
            <path d="M153.27,212.008C148.865,212.008 144.893,211.033 141.356,209.085C137.819,207.136 135.045,204.436 133.032,200.983C131.02,197.531 130.014,193.666 130.014,189.387C130.014,185.109 131.02,181.243 133.032,177.791C135.045,174.339 137.83,171.638 141.388,169.69C144.946,167.741 148.928,166.767 153.334,166.767C156.638,166.767 159.688,167.317 162.484,168.419C165.279,169.52 167.652,171.13 169.6,173.248L166.614,176.234C163.14,172.718 158.756,170.96 153.461,170.96C149.945,170.96 146.747,171.765 143.866,173.375C140.986,174.985 138.73,177.187 137.099,179.983C135.468,182.779 134.653,185.914 134.653,189.387C134.653,192.861 135.468,195.995 137.099,198.791C138.73,201.587 140.986,203.79 143.866,205.399C146.747,207.009 149.945,207.814 153.461,207.814C158.798,207.814 163.183,206.035 166.614,202.477L169.6,205.463C167.652,207.582 165.269,209.201 162.452,210.324C159.635,211.446 156.574,212.008 153.27,212.008Z" style="fill:rgb(128,128,128);fill-rule:nonzero;"/>
            <path d="M199.083,212.008C194.678,212.008 190.685,211.023 187.106,209.053C183.526,207.083 180.73,204.383 178.718,200.952C176.706,197.52 175.7,193.666 175.7,189.387C175.7,185.109 176.706,181.254 178.718,177.823C180.73,174.392 183.526,171.691 187.106,169.721C190.685,167.752 194.678,166.767 199.083,166.767C203.489,166.767 207.46,167.741 210.997,169.69C214.534,171.638 217.319,174.339 219.353,177.791C221.386,181.243 222.403,185.109 222.403,189.387C222.403,193.666 221.386,197.531 219.353,200.983C217.319,204.436 214.534,207.136 210.997,209.085C207.46,211.033 203.489,212.008 199.083,212.008ZM199.083,207.814C202.599,207.814 205.776,207.02 208.614,205.431C211.452,203.843 213.676,201.64 215.286,198.823C216.896,196.006 217.701,192.861 217.701,189.387C217.701,185.914 216.896,182.768 215.286,179.951C213.676,177.134 211.452,174.932 208.614,173.343C205.776,171.755 202.599,170.96 199.083,170.96C195.567,170.96 192.38,171.755 189.52,173.343C186.661,174.932 184.416,177.134 182.785,179.951C181.154,182.768 180.339,185.914 180.339,189.387C180.339,192.861 181.154,196.006 182.785,198.823C184.416,201.64 186.661,203.843 189.52,205.431C192.38,207.02 195.567,207.814 199.083,207.814Z" style="fill:rgb(128,128,128);fill-rule:nonzero;"/>
            <path d="M251.822,212.008C246.061,212.008 241.571,210.356 238.351,207.052C235.132,203.747 233.522,198.939 233.522,192.628L233.522,167.148L238.224,167.148L238.224,192.437C238.224,197.605 239.389,201.46 241.719,204.002C244.049,206.543 247.417,207.814 251.822,207.814C256.269,207.814 259.659,206.543 261.989,204.002C264.318,201.46 265.483,197.605 265.483,192.437L265.483,167.148L270.058,167.148L270.058,192.628C270.058,198.939 268.459,203.747 265.261,207.052C262.062,210.356 257.583,212.008 251.822,212.008Z" style="fill:rgb(128,128,128);fill-rule:nonzero;"/>
            <path d="M322.352,167.148L322.352,211.626L318.476,211.626L289.883,175.536L289.883,211.626L285.181,211.626L285.181,167.148L289.057,167.148L317.714,203.239L317.714,167.148L322.352,167.148Z" style="fill:rgb(128,128,128);fill-rule:nonzero;"/>
            <path d="M346.434,171.215L330.803,171.215L330.803,167.148L366.767,167.148L366.767,171.215L351.136,171.215L351.136,211.626L346.434,211.626L346.434,171.215Z" style="fill:rgb(128,128,128);fill-rule:nonzero;"/>
            <path d="M400.889,199.744L376.108,199.744L370.77,211.626L365.878,211.626L386.211,167.148L390.849,167.148L411.182,211.626L406.226,211.626L400.889,199.744ZM399.173,195.932L388.498,172.041L377.824,195.932L399.173,195.932Z" style="fill:rgb(128,128,128);fill-rule:nonzero;"/>
            <path d="M456.678,167.148L456.678,211.626L452.802,211.626L424.208,175.536L424.208,211.626L419.506,211.626L419.506,167.148L423.382,167.148L452.039,203.239L452.039,167.148L456.678,167.148Z" style="fill:rgb(128,128,128);fill-rule:nonzero;"/>
            <path d="M480.76,171.215L465.129,171.215L465.129,167.148L501.093,167.148L501.093,171.215L485.462,171.215L485.462,211.626L480.76,211.626L480.76,171.215Z" style="fill:rgb(128,128,128);fill-rule:nonzero;"/>
            <path d="M521.107,212.008C517.804,212.008 514.638,211.478 511.609,210.419C508.58,209.36 506.24,207.963 504.588,206.226L506.43,202.604C508.04,204.213 510.179,205.516 512.848,206.511C515.517,207.507 518.27,208.005 521.107,208.005C525.09,208.005 528.076,207.274 530.067,205.812C532.058,204.351 533.054,202.455 533.054,200.126C533.054,198.346 532.514,196.927 531.434,195.868C530.353,194.809 529.03,193.994 527.462,193.422C525.895,192.85 523.713,192.225 520.918,191.548C517.57,190.7 514.901,189.885 512.911,189.101C510.92,188.318 509.215,187.121 507.796,185.511C506.377,183.901 505.668,181.72 505.668,178.966C505.668,176.721 506.261,174.677 507.447,172.835C508.633,170.992 510.454,169.52 512.911,168.419C515.367,167.317 518.418,166.767 522.06,166.767C524.603,166.767 527.092,167.116 529.527,167.815C531.963,168.514 534.07,169.478 535.85,170.706L534.261,174.455C532.397,173.227 530.406,172.305 528.288,171.691C526.17,171.077 524.094,170.77 522.06,170.77C518.164,170.77 515.231,171.522 513.261,173.025C511.291,174.529 510.306,176.467 510.306,178.839C510.306,180.619 510.846,182.048 511.926,183.128C513.007,184.209 514.362,185.035 515.992,185.607C517.624,186.178 519.815,186.803 522.57,187.481C525.831,188.286 528.468,189.08 530.48,189.864C532.493,190.647 534.198,191.834 535.595,193.422C536.993,195.011 537.692,197.16 537.692,199.871C537.692,202.117 537.089,204.16 535.881,206.003C534.674,207.846 532.821,209.307 530.322,210.387C527.822,211.468 524.751,212.008 521.107,212.008Z" style="fill:rgb(128,128,128);fill-rule:nonzero;"/>
        </g>
    </g>
</svg>
