<?xml version="1.0" encoding="UTF-8" standalone="no"?>
<!DOCTYPE svg PUBLIC "-//W3C//DTD SVG 1.1//EN" "http://www.w3.org/Graphics/SVG/1.1/DTD/svg11.dtd">
<svg width="100%" height="100%" viewBox="0 0 32 32" version="1.1" xmlns="http://www.w3.org/2000/svg" xmlns:xlink="http://www.w3.org/1999/xlink" xml:space="preserve" xmlns:serif="http://www.serif.com/" style="fill-rule:evenodd;clip-rule:evenodd;stroke-linejoin:round;stroke-miterlimit:2;">
    <g>
        <g>
            <g transform="matrix(1.00632,0,0,0.772856,-0.0809821,1.37394)">
                <path d="M29.892,4.443C29.892,3.866 29.532,3.398 29.089,3.398L2.871,3.398C2.428,3.398 2.068,3.866 2.068,4.443L2.068,6.533C2.068,7.11 2.428,7.578 2.871,7.578L29.089,7.578C29.532,7.578 29.892,7.11 29.892,6.533L29.892,4.443Z" style="fill:rgb(127,127,127);"/>
            </g>
            <g transform="matrix(1.00632,0,0,0.772856,-0.0809821,22.1629)">
                <path d="M29.892,4.443C29.892,3.866 29.532,3.398 29.089,3.398L2.871,3.398C2.428,3.398 2.068,3.866 2.068,4.443L2.068,6.533C2.068,7.11 2.428,7.578 2.871,7.578L29.089,7.578C29.532,7.578 29.892,7.11 29.892,6.533L29.892,4.443Z" style="fill:rgb(127,127,127);"/>
            </g>
            <g transform="matrix(1.00632,0,0,0.772856,-0.0809821,11.7684)">
                <path d="M29.892,4.443C29.892,3.866 29.532,3.398 29.089,3.398L2.871,3.398C2.428,3.398 2.068,3.866 2.068,4.443L2.068,6.533C2.068,7.11 2.428,7.578 2.871,7.578L29.089,7.578C29.532,7.578 29.892,7.11 29.892,6.533L29.892,4.443Z" style="fill:rgb(127,127,127);"/>
            </g>
        </g>
    </g>
    <g>
        <g>
            <g transform="matrix(1.00632,0,0,0.772856,-0.0809821,1.37394)">
                <path d="M29.892,4.443C29.892,3.866 29.532,3.398 29.089,3.398L2.871,3.398C2.428,3.398 2.068,3.866 2.068,4.443L2.068,6.533C2.068,7.11 2.428,7.578 2.871,7.578L29.089,7.578C29.532,7.578 29.892,7.11 29.892,6.533L29.892,4.443Z" style="fill:rgb(154,154,154);"/>
            </g>
            <g transform="matrix(1.00632,0,0,0.772856,-0.0809821,22.1629)">
                <path d="M29.892,4.443C29.892,3.866 29.532,3.398 29.089,3.398L2.871,3.398C2.428,3.398 2.068,3.866 2.068,4.443L2.068,6.533C2.068,7.11 2.428,7.578 2.871,7.578L29.089,7.578C29.532,7.578 29.892,7.11 29.892,6.533L29.892,4.443Z" style="fill:rgb(154,154,154);"/>
            </g>
            <g transform="matrix(1.00632,0,0,0.772856,-0.0809821,11.7684)">
                <path d="M29.892,4.443C29.892,3.866 29.532,3.398 29.089,3.398L2.871,3.398C2.428,3.398 2.068,3.866 2.068,4.443L2.068,6.533C2.068,7.11 2.428,7.578 2.871,7.578L29.089,7.578C29.532,7.578 29.892,7.11 29.892,6.533L29.892,4.443Z" style="fill:rgb(154,154,154);"/>
            </g>
        </g>
    </g>
</svg>
